<svg width="941" height="461" viewBox="0 0 941 461" fill="none" xmlns="http://www.w3.org/2000/svg">
<path d="M131.996 245.352C128.06 244.696 124.616 242.892 121.664 239.94C119.04 236.66 117.892 232.724 118.22 228.132C121.172 206.156 125.764 183.852 131.996 161.22C138.228 138.26 145.936 117.104 155.12 97.752H18.344C13.096 97.752 9.16 96.112 6.536 92.832C3.912 89.552 2.6 86.108 2.6 82.5C2.6 77.908 4.076 74.136 7.028 71.184C9.98 68.232 13.752 66.756 18.344 66.756H213.176V16.572C213.176 10.996 214.816 7.05998 218.096 4.76397C221.376 2.13999 224.984 0.827996 228.92 0.827996C233.512 0.827996 237.284 2.30399 240.236 5.25597C243.188 8.20797 244.664 11.98 244.664 16.572V66.756H439.496C445.072 66.756 449.008 68.396 451.304 71.676C453.928 74.956 455.24 78.564 455.24 82.5C455.24 86.764 453.764 90.372 450.812 93.324C447.86 96.276 444.088 97.752 439.496 97.752H298.292V230.1C298.292 234.364 296.816 237.972 293.864 240.924C290.912 243.876 287.14 245.352 282.548 245.352C278.284 245.352 274.676 243.876 271.724 240.924C268.772 237.972 267.296 234.364 267.296 230.1V97.752H189.56C181.688 114.152 175.456 128.912 170.864 142.032C166.272 154.824 162.336 168.108 159.056 181.884C156.104 195.66 152.824 212.224 149.216 231.576C146.92 240.76 141.18 245.352 131.996 245.352ZM26.708 218.784C24.084 221.408 20.64 222.72 16.376 222.72C11.784 222.72 7.848 221.08 4.568 217.8C1.616 213.864 0.140001 210.092 0.140001 206.484C0.140001 202.22 1.944 198.612 5.552 195.66L74.432 134.16C78.368 131.208 82.14 129.732 85.748 129.732C90.012 129.732 93.62 131.536 96.572 135.144C99.524 138.424 101 141.868 101 145.476C101 150.068 99.032 154.004 95.096 157.284L26.708 218.784ZM414.404 217.308L340.604 160.728C336.34 157.776 334.208 153.676 334.208 148.428C334.208 144.82 335.356 141.54 337.652 138.588C339.292 135.964 341.096 134.324 343.064 133.668C345.032 132.684 347 132.192 348.968 132.192C350.936 132.192 352.74 132.52 354.38 133.176C356.348 133.832 358.152 134.652 359.792 135.636L433.592 192.708C437.856 195.332 439.988 199.432 439.988 205.008C439.988 208.616 438.84 211.732 436.544 214.356C433.592 218.62 429.656 220.752 424.736 220.752C421.128 220.752 417.684 219.604 414.404 217.308ZM75.416 456.912C62.296 457.24 55.736 452.156 55.736 441.66C55.736 437.724 56.884 434.444 59.18 431.82C61.804 429.196 64.592 427.392 67.544 426.408C88.864 419.192 110.84 411.484 133.472 403.284C156.432 395.084 178.572 386.884 199.892 378.684C196.284 376.388 191.692 373.436 186.116 369.828C180.54 366.22 174.8 362.612 168.896 359.004C163.32 355.068 158.564 351.788 154.628 349.164C150.692 346.212 148.56 344.244 148.232 343.26C144.296 340.308 142.328 336.372 142.328 331.452C142.328 327.844 143.476 324.4 145.772 321.12C147.412 318.824 149.216 317.348 151.184 316.692C153.48 315.708 155.612 315.216 157.58 315.216C161.188 315.216 164.632 316.364 167.912 318.66C178.736 327.188 190.708 335.716 203.828 344.244C216.948 352.444 227.936 359.004 236.792 363.924C249.256 358.348 262.212 352.116 275.66 345.228C289.436 338.012 300.096 331.288 307.64 325.056C318.464 316.528 323.876 309.476 323.876 303.9C323.876 296.356 316.332 291.436 301.244 289.14C286.156 286.516 267.624 285.204 245.648 285.204C239.416 285.204 230.396 285.696 218.588 286.68C206.78 287.336 192.348 288.156 175.292 289.14C168.404 289.796 163.32 287.008 160.04 280.776C152.168 289.632 143.312 299.636 133.472 310.788C123.632 321.612 114.284 332.6 105.428 343.752C96.9 354.904 90.012 365.072 84.764 374.256C81.156 379.832 76.564 382.62 70.988 382.62C68.364 382.62 65.74 381.8 63.116 380.16C60.164 378.192 58.032 376.06 56.72 373.764C55.736 371.468 55.244 369.172 55.244 366.876C55.244 365.236 55.408 363.76 55.736 362.448C56.392 361.136 56.884 359.824 57.212 358.512C65.084 346.376 74.104 333.748 84.272 320.628C94.44 307.508 104.936 294.716 115.76 282.252C126.584 269.788 137.08 258.472 147.248 248.304C150.2 245.024 153.808 243.384 158.072 243.384C161.68 243.384 165.124 244.696 168.404 247.32C171.684 249.616 173.652 253.06 174.308 257.652C179.884 256.34 188.412 255.356 199.892 254.7C211.7 254.044 224 253.716 236.792 253.716C251.552 253.716 265.984 254.372 280.088 255.684C294.52 256.668 307.476 258.964 318.956 262.572C330.436 265.852 339.456 270.772 346.016 277.332C352.904 283.892 356.348 292.42 356.348 302.916C356.348 318.004 348.64 331.78 333.224 344.244C318.136 356.38 297.8 369.008 272.216 382.128C287.304 389.344 300.588 395.248 312.068 399.84C323.876 404.432 336.012 408.368 348.476 411.648C360.94 414.928 376.028 418.372 393.74 421.98C398.332 422.964 401.612 424.768 403.58 427.392C405.548 430.344 406.532 433.46 406.532 436.74C406.532 441.988 404.728 445.924 401.12 448.548C397.84 451.5 394.396 452.976 390.788 452.976C383.9 451.992 374.88 450.024 363.728 447.072C352.904 444.12 340.932 440.512 327.812 436.248C315.02 431.984 302.392 427.556 289.928 422.964C277.464 418.372 266.312 413.78 256.472 409.188C246.632 404.924 239.416 401.316 234.824 398.364C228.592 400.66 219.408 403.94 207.272 408.204C195.464 412.796 181.852 417.88 166.436 423.456C151.348 429.032 135.768 434.772 119.696 440.676C103.952 446.58 89.192 451.992 75.416 456.912ZM609.236 460.356C600.708 460.356 595.46 456.256 593.492 448.056C588.244 419.52 583.816 394.428 580.208 372.78C576.928 351.132 574.304 331.616 572.336 314.232C570.368 296.52 568.728 279.792 567.416 264.048C566.432 248.304 565.612 232.232 564.956 215.832C564.3 199.104 563.48 180.572 562.496 160.236C558.56 164.172 553.64 169.42 547.736 175.98C541.832 182.212 535.764 188.772 529.532 195.66C523.628 202.22 518.38 208.124 513.788 213.372C510.836 217.308 506.736 219.276 501.488 219.276C497.552 219.276 494.436 218.128 492.14 215.832C488.204 212.224 486.236 208.288 486.236 204.024C486.236 200.416 487.548 196.972 490.172 193.692C518.38 156.956 549.376 124.812 583.16 97.26C617.272 69.708 650.892 44.288 684.02 21C687.3 19.36 690.416 18.54 693.368 18.54C698.288 18.54 702.388 20.672 705.668 24.936C707.964 28.216 709.112 31.496 709.112 34.776C709.112 38.712 706.816 42.484 702.224 46.092C689.432 55.932 678.116 64.46 668.276 71.676C658.764 78.892 649.744 85.616 641.216 91.848C633.016 97.752 624.488 104.312 615.632 111.528C607.104 118.744 597.264 127.272 586.112 137.112C590.704 139.408 593 143.508 593 149.412C593.984 181.556 595.132 210.092 596.444 235.02C597.756 259.948 599.396 283.236 601.364 304.884C603.332 326.204 606.12 347.852 609.728 369.828C613.336 391.476 618.092 415.256 623.996 441.168C625.308 446.416 624.16 450.844 620.552 454.452C617.272 458.388 613.5 460.356 609.236 460.356ZM928.544 441.66C917.392 443.956 906.404 445.596 895.58 446.58C885.084 447.892 874.752 448.548 864.584 448.548C848.84 448.548 833.588 446.744 818.828 443.136C804.068 439.856 789.472 434.28 775.04 426.408C751.752 413.288 734.04 390.656 721.904 358.512C710.096 326.368 703.044 284.22 700.748 232.068C700.42 225.836 700.092 219.604 699.764 213.372C699.764 206.812 699.764 200.252 699.764 193.692C699.764 174.996 700.42 156.464 701.732 138.096C703.044 119.728 705.176 103.328 708.128 88.896C709.112 84.96 710.916 81.68 713.54 79.056C716.492 76.104 720.592 74.956 725.84 75.612C730.76 76.924 734.368 79.22 736.664 82.5C738.96 85.78 739.78 89.224 739.124 92.832C737.812 102.016 736.5 113.496 735.188 127.272C733.876 140.72 732.728 154.332 731.744 168.108C731.088 181.556 730.76 192.872 730.76 202.056C752.08 198.776 770.776 196.152 786.848 194.184C802.92 192.216 818.336 190.74 833.096 189.756C848.184 188.772 864.256 188.28 881.312 188.28C887.872 188.28 894.924 188.444 902.468 188.772C910.012 188.772 917.884 188.936 926.084 189.264C935.924 190.248 940.844 195.168 940.844 204.024C940.844 208.616 939.04 212.716 935.432 216.324C932.152 219.604 928.38 221.08 924.116 220.752C900.5 220.752 879.836 221.08 862.124 221.736C844.74 222.064 828.832 222.72 814.4 223.704C800.296 224.688 786.52 226 773.072 227.64C759.952 229.28 746.012 231.084 731.252 233.052C732.564 259.62 735.68 285.86 740.6 311.772C745.52 337.356 753.72 358.676 765.2 375.732C774.712 390.492 789.144 400.988 808.496 407.22C828.176 413.78 848.84 417.06 870.488 417.06C888.2 417.06 905.256 415.256 921.656 411.648C926.576 410.664 931.004 411.648 934.94 414.6C938.876 417.88 940.844 422.308 940.844 427.884C940.844 431.82 939.532 434.936 936.908 437.232C934.612 439.528 931.824 441.004 928.544 441.66Z" fill="#64AD74"/>
</svg>
